<?xml version="1.0" standalone="no"?>
<!DOCTYPE svg PUBLIC "-//W3C//DTD SVG 20010904//EN"
 "http://www.w3.org/TR/2001/REC-SVG-20010904/DTD/svg10.dtd">
<svg version="1.0" xmlns="http://www.w3.org/2000/svg"
 width="509.000000pt" height="509.000000pt" viewBox="0 0 509.000000 509.000000"
 preserveAspectRatio="xMidYMid meet">
<metadata>
Created by potrace 1.11, written by Peter Selinger 2001-2013
</metadata>
<g transform="translate(0.000000,509.000000) scale(0.100000,-0.100000)"
fill="#000000" stroke="none">
<path d="M4010 4780 c-14 -11 -20 -20 -15 -20 6 0 21 9 35 20 14 11 21 20 15
20 -5 0 -21 -9 -35 -20z"/>
<path d="M4057 4743 c-8 -48 -61 -133 -100 -161 l-32 -22 -3 25 c-2 14 3 49
12 77 33 114 -8 52 -59 -87 -20 -55 -42 -112 -50 -127 -8 -14 -15 -37 -15 -50
0 -40 58 -268 75 -294 8 -13 13 -24 10 -24 -4 0 -48 38 -100 85 -94 85 -106
90 -142 62 -7 -5 -10 -19 -7 -32 3 -14 -1 -34 -11 -48 -14 -21 -14 -29 -3 -46
14 -23 28 -28 28 -10 0 5 4 8 9 5 5 -3 14 1 21 9 6 7 18 11 26 8 14 -5 44 13
44 27 0 5 -17 30 -37 57 l-37 48 35 -30 c19 -16 62 -54 97 -84 34 -30 62 -59
61 -65 0 -6 -19 -25 -42 -41 -43 -31 -66 -67 -77 -120 l-6 -30 -22 41 c-28 55
-47 61 -89 27 -67 -53 -119 -83 -218 -125 -55 -23 -102 -43 -103 -44 -2 -1 -8
-19 -12 -40 -6 -27 -5 -45 6 -67 9 -16 13 -31 10 -34 -6 -6 -115 35 -130 48
-5 4 -35 -5 -66 -21 -59 -30 -70 -30 -70 0 0 24 -154 255 -175 263 -9 4 -30 7
-46 7 -29 0 -40 14 -16 23 6 3 -5 3 -25 0 -26 -4 -61 3 -117 23 -64 22 -83 26
-93 16 -9 -9 -6 -12 15 -12 33 0 102 -34 110 -53 7 -20 -2 -31 -57 -66 -45
-28 -58 -31 -127 -31 -65 0 -78 3 -82 18 -4 16 -5 16 -6 -1 -3 -44 134 -51
219 -11 102 48 173 74 200 74 23 0 36 -14 83 -85 32 -47 57 -94 57 -105 0 -11
7 -37 15 -57 21 -49 20 -51 -20 -59 -30 -5 -35 -10 -30 -28 5 -15 4 -17 -3 -7
-9 12 -16 11 -45 -7 -25 -14 -37 -17 -41 -9 -2 7 -5 2 -5 -9 -1 -16 -13 -26
-48 -39 -27 -10 -53 -21 -58 -26 -10 -8 -41 27 -128 142 -46 61 -112 117 -165
138 -30 13 -37 12 -73 -8 l-40 -23 -36 33 -37 32 -90 -7 c-226 -17 -429 -94
-472 -179 -21 -41 -81 -97 -105 -97 -12 0 -27 -17 -44 -49 -13 -27 -29 -52
-34 -56 -6 -3 -65 4 -133 16 -216 37 -241 39 -276 27 -36 -13 -40 -25 -15 -43
15 -11 10 -12 -26 -5 -97 18 -93 -7 15 -101 l85 -74 127 -12 c70 -7 168 -12
217 -12 50 0 110 -2 135 -5 25 -2 51 1 58 6 9 8 12 6 12 -6 0 -9 7 -16 15 -16
8 0 15 -4 15 -9 0 -14 -40 -20 -67 -10 -14 5 -53 11 -87 14 -89 6 -365 24
-482 31 -99 7 -101 6 -107 -16 -4 -15 1 -32 14 -48 10 -14 19 -32 19 -42 0
-10 -50 -53 -130 -111 -75 -53 -129 -98 -126 -105 3 -9 -13 -15 -47 -21 -47
-7 -52 -11 -55 -35 -3 -23 1 -28 25 -34 56 -12 64 -16 60 -27 -2 -7 -17 -13
-34 -15 -18 -2 -34 -11 -39 -20 -10 -25 -12 -102 -2 -96 4 3 8 12 8 20 0 8 16
22 36 31 31 15 36 15 44 3 6 -8 8 -21 5 -27 -2 -7 2 -13 10 -13 18 0 28 17 15
25 -5 3 -10 12 -10 19 0 16 69 28 85 15 6 -5 16 0 22 11 7 10 29 24 50 30 47
15 73 37 73 62 0 13 -8 18 -30 18 -16 0 -30 3 -30 6 0 3 26 34 57 69 59 66 73
75 160 106 52 17 52 17 40 -2 -6 -10 -15 -19 -19 -19 -15 0 -41 -51 -49 -96
-8 -44 -36 -106 -100 -224 -24 -45 -27 -57 -16 -65 31 -23 -2 -126 -74 -230
-15 -22 -29 -53 -32 -70 -4 -25 0 -34 26 -52 18 -12 49 -30 70 -39 34 -15 37
-19 32 -48 -2 -17 -9 -74 -15 -126 -5 -53 -12 -111 -16 -130 -4 -26 -3 -31 5
-20 8 11 11 4 11 -33 0 -66 -32 -130 -94 -190 -28 -27 -38 -40 -22 -28 38 28
50 27 30 -4 -9 -14 -18 -50 -19 -81 -2 -30 -7 -60 -13 -67 -5 -7 -12 -30 -15
-52 -3 -22 -13 -57 -22 -79 -15 -36 -17 -37 -30 -20 -25 33 -16 0 11 -39 14
-21 23 -45 20 -53 -3 -8 -1 -14 4 -14 5 0 9 -11 8 -25 -1 -14 -5 -25 -8 -25
-4 0 -5 -13 -2 -29 3 -20 -3 -40 -17 -60 -12 -16 -24 -44 -27 -63 -6 -33 -5
-33 17 9 13 24 26 43 29 43 4 0 8 -17 8 -37 2 -53 6 -83 11 -78 7 7 31 -46 25
-56 -3 -5 -2 -9 3 -9 4 0 9 -23 10 -51 1 -28 7 -57 14 -65 21 -25 0 -28 -26
-4 -14 13 -25 19 -25 12 0 -6 21 -28 46 -48 25 -21 41 -40 35 -42 -16 -5 -13
-32 4 -38 8 -4 12 -10 9 -15 -3 -5 0 -9 5 -9 6 0 11 -7 11 -16 0 -8 4 -13 9
-10 5 3 18 -13 29 -37 47 -99 202 -217 361 -273 l53 -19 -32 -26 -31 -27 28
-7 c48 -14 56 -15 110 -16 28 -1 57 2 63 6 6 4 30 9 53 12 23 2 60 9 82 14 22
5 49 11 60 13 48 8 211 49 226 57 9 4 31 11 50 14 19 3 38 10 43 16 6 5 17 9
25 9 9 1 30 7 46 15 26 13 27 14 5 9 l-25 -5 24 20 c12 12 26 19 30 16 9 -5 7
32 -2 41 -4 4 -7 2 -7 -4 0 -6 -6 -9 -13 -6 -8 3 20 38 73 94 48 50 84 92 82
94 -2 3 10 24 26 48 41 59 87 151 107 216 10 29 21 55 26 58 5 3 7 9 4 14 -3
5 2 40 10 77 9 37 19 131 22 209 l6 140 31 20 c17 11 45 28 61 38 26 15 27 15
8 1 -42 -32 -25 -56 49 -70 35 -7 38 -11 53 -61 12 -43 19 -52 33 -48 14 5 14
3 -2 -10 -19 -15 -19 -16 -1 -29 17 -13 17 -21 6 -128 -16 -155 -20 -181 -32
-174 -15 10 -49 -5 -49 -21 0 -8 6 -14 14 -14 7 0 19 -7 26 -15 13 -16 89 -20
125 -6 18 7 17 9 -13 25 -17 9 -32 24 -32 34 0 9 7 88 17 176 12 115 13 166 6
185 -6 14 -14 34 -18 44 -5 11 -3 17 7 17 8 0 23 9 33 20 13 14 31 20 59 20
57 0 260 26 318 40 32 8 45 16 41 25 -6 17 66 33 76 17 4 -7 41 -2 111 16
l106 26 42 68 c23 37 39 74 36 81 -3 8 3 20 12 28 16 12 17 12 11 -4 -11 -31
10 -9 23 23 12 28 38 37 32 11 -1 -6 5 -11 14 -11 11 0 15 6 11 20 -3 11 -2
22 2 24 4 3 8 -9 9 -25 2 -24 -2 -29 -19 -29 -15 0 -19 -5 -15 -15 3 -8 1 -15
-4 -15 -6 0 -10 -4 -10 -10 0 -5 8 -7 18 -3 12 4 14 3 6 -6 -6 -6 -21 -13 -33
-16 -31 -6 -51 -24 -51 -45 0 -15 5 -17 35 -10 32 7 35 6 30 -10 -5 -17 -3
-18 26 -10 17 5 34 11 36 14 2 2 13 46 24 97 20 94 22 228 5 274 -7 18 -6 18
11 -2 10 -12 43 -37 73 -56 30 -18 66 -40 80 -50 25 -16 27 -16 84 29 67 53
67 53 115 -36 28 -51 29 -56 14 -80 -14 -25 -14 -30 5 -74 21 -46 22 -47 56
-41 29 6 35 4 41 -15 5 -17 12 -20 31 -16 19 5 24 2 24 -13 0 -11 11 -33 25
-49 14 -17 25 -33 25 -38 0 -30 168 -278 232 -343 28 -28 46 -51 42 -51 -21
-1 -45 -30 -40 -47 12 -38 185 -24 187 15 0 14 2 15 7 2 4 -8 13 -16 21 -18
12 -3 12 0 2 12 -10 11 -8 18 10 35 13 12 26 21 30 21 10 0 25 71 23 110 -8
140 -23 208 -43 195 -5 -3 -12 2 -15 11 -4 12 -2 15 9 10 9 -3 15 0 15 9 0 23
-19 67 -27 62 -5 -3 -8 14 -8 38 0 27 -7 51 -18 63 -9 10 -17 28 -17 39 0 11
-3 23 -7 27 -4 3 -8 12 -9 19 -2 7 -12 37 -24 67 -12 30 -24 63 -27 73 -3 9
-11 17 -19 17 -7 0 -18 8 -23 19 -8 14 -5 23 13 40 30 29 39 27 31 -8 -3 -17
-2 -32 4 -36 6 -3 11 -1 11 6 0 8 11 9 36 5 20 -4 41 -3 48 3 18 15 8 63 -19
95 -20 23 -27 26 -44 16 -12 -6 -21 -17 -21 -25 0 -32 -16 -12 -43 53 -38 95
-45 103 -97 107 -25 2 -50 4 -56 4 -18 1 -26 33 -12 43 7 4 23 8 35 8 35 0 36
16 3 68 -30 50 -77 82 -119 82 -28 0 -46 34 -26 50 8 6 19 27 25 46 10 29 8
41 -16 94 -15 34 -42 73 -60 88 -33 28 -102 142 -86 142 12 0 25 30 17 38 -3
3 -32 -21 -65 -53 -59 -59 -69 -61 -50 -10 9 23 7 27 -16 35 -14 6 -48 11 -75
13 -44 2 -49 4 -49 26 0 18 -3 21 -13 13 -14 -12 -66 -9 -167 7 -92 15 -91 15
-133 -39 -33 -43 -43 -50 -73 -50 -37 0 -44 -13 -17 -29 33 -18 4 -23 -64 -12
-37 6 -93 13 -123 16 -48 4 -60 10 -93 45 -35 38 -38 39 -49 20 -16 -25 -40
-26 -36 -2 1 9 -1 23 -5 30 -11 16 -48 -3 -41 -22 7 -17 -20 -38 -40 -30 -24
9 -20 41 12 90 l27 44 165 0 c91 -1 176 0 190 1 14 1 48 -1 75 -4 83 -11 217
-28 264 -33 24 -3 48 -7 53 -10 4 -3 8 -1 8 4 0 13 -25 22 -65 22 -18 0 -46 7
-61 15 -16 8 -43 15 -61 15 -18 0 -42 4 -55 9 -13 5 -36 12 -52 16 -28 6 -23
10 65 50 52 24 107 44 123 45 16 0 93 -33 179 -75 82 -41 156 -75 164 -75 7 0
13 -4 13 -8 0 -4 14 -16 31 -26 l31 -18 -12 21 c-6 12 -8 31 -5 42 7 21 15 17
-170 95 -49 20 -94 43 -98 51 -4 7 -17 13 -27 13 -11 0 -20 4 -20 9 0 5 -11 8
-24 7 -16 -2 -23 2 -22 13 1 9 -8 17 -21 19 -13 2 -23 7 -23 12 0 5 -25 17
-55 25 -34 10 -62 26 -75 42 l-20 26 21 15 c19 13 29 11 118 -23 53 -21 130
-54 173 -74 71 -34 77 -35 87 -19 9 14 8 18 -3 18 -8 0 -23 14 -33 30 -9 17
-21 30 -24 30 -19 0 -72 116 -77 164 -9 108 -11 101 31 104 27 2 42 10 54 29
30 45 -20 84 -72 57 -35 -18 -35 -18 -35 11 0 21 -43 75 -60 75 -4 0 -28 29
-54 65 -26 36 -52 62 -57 59 -16 -9 -37 15 -32 37 7 27 21 33 39 18 12 -10 21
-6 52 24 21 21 43 37 50 37 7 0 20 8 30 18 10 9 44 40 75 68 63 57 69 69 32
60 -29 -7 -34 10 -6 19 12 3 21 17 23 32 2 18 15 33 39 47 102 60 149 92 149
102 0 6 -11 20 -24 31 l-23 21 -96 -62 c-65 -41 -96 -67 -97 -81 -2 -16 -4
-15 -13 8 -6 16 -17 25 -24 23 -7 -3 -15 -1 -18 4 -7 11 -53 -5 -76 -26 -13
-12 -19 -9 -46 30 -36 50 -88 225 -79 262 4 14 28 38 59 57 29 19 71 56 94 84
67 80 120 201 95 217 -5 3 -12 -11 -15 -31z m-53 -678 c3 -8 -3 -19 -13 -25
-15 -7 -18 -6 -17 8 0 9 6 20 11 24 13 10 12 10 19 -7z m-104 -89 c0 -3 -4 -8
-10 -11 -5 -3 -10 -1 -10 4 0 6 5 11 10 11 6 0 10 -2 10 -4z m-40 -26 c0 -6
-7 -25 -16 -42 -14 -27 -18 -29 -26 -15 -6 11 -4 24 8 42 17 26 34 33 34 15z
m58 -85 c-11 -13 -26 -21 -32 -18 -6 4 -5 8 4 11 8 3 19 11 23 18 4 8 12 14
17 14 6 0 0 -11 -12 -25z m-99 -71 c7 -7 -4 -13 -29 -16 -17 -2 -25 3 -28 16
-3 16 0 18 24 12 16 -4 31 -10 33 -12z m61 -74 c0 -5 -7 -7 -15 -4 -8 4 -15 8
-15 10 0 2 7 4 15 4 8 0 15 -4 15 -10z m-214 -44 c11 -4 13 0 8 19 -5 20 -3
23 15 18 23 -6 27 -18 11 -28 -6 -4 -8 -11 -5 -16 4 -5 1 -9 -4 -9 -6 0 -11
-7 -11 -16 0 -13 -4 -11 -18 7 -23 30 -33 55 -24 64 4 4 8 -2 10 -13 2 -11 10
-23 18 -26z m99 -7 c10 -14 1 -21 -19 -13 -9 3 -13 10 -10 15 7 12 21 11 29
-2z m-215 -69 c-17 -32 -20 -20 -7 23 9 28 13 33 15 18 2 -11 -2 -30 -8 -41z
m170 40 c0 -5 -4 -10 -10 -10 -5 0 -10 5 -10 10 0 6 5 10 10 10 6 0 10 -4 10
-10z m-225 -22 c31 -5 23 -23 -9 -21 -35 2 -38 6 -30 27 4 11 9 14 13 7 4 -6
16 -12 26 -13z m225 -13 c0 -8 -7 -15 -15 -15 -13 0 -14 3 -3 15 16 18 18 18
18 0z m-1065 -15 c3 -5 2 -10 -4 -10 -5 0 -13 5 -16 10 -3 6 -2 10 4 10 5 0
13 -4 16 -10z m1234 -16 c-33 -18 -55 -19 -40 0 6 7 23 14 38 14 l26 0 -24
-14z m55 -10 c5 -14 4 -15 -9 -4 -17 14 -19 20 -6 20 5 0 12 -7 15 -16z m-866
-117 c3 -22 -1 -27 -17 -27 -17 0 -21 6 -21 31 0 24 4 30 18 27 10 -2 18 -14
20 -31z m502 -15 c0 -7 -4 -10 -10 -7 -5 3 -10 16 -10 28 0 18 2 19 10 7 5 -8
10 -21 10 -28z m105 18 c-3 -5 -10 -10 -16 -10 -5 0 -9 5 -9 10 0 6 7 10 16
10 8 0 12 -4 9 -10z m-780 -10 c4 -6 11 -8 16 -5 22 14 6 -13 -23 -38 -23 -19
-26 -25 -10 -17 39 19 45 5 38 -99 -7 -115 -15 -162 -30 -166 -6 -2 -37 -6
-68 -10 -55 -6 -57 -7 -48 -30 10 -26 -1 -81 -16 -77 -5 1 -10 19 -11 40 -4
106 -6 114 -30 125 -12 5 -23 18 -23 27 0 9 -7 25 -15 36 -13 18 -14 17 -15
-18 0 -36 5 -45 44 -72 18 -13 19 -17 7 -70 -12 -53 -14 -57 -39 -54 -15 2
-25 6 -22 10 7 9 -41 58 -58 58 -11 0 -13 8 -8 31 3 17 6 51 6 75 0 32 4 44
15 44 8 0 15 6 16 13 0 10 2 10 6 0 2 -7 8 -13 13 -13 4 0 -1 18 -12 40 -19
37 -22 39 -59 35 -21 -2 -39 0 -39 5 0 5 -3 15 -6 24 -5 13 2 15 41 13 49 -3
64 6 46 27 -6 7 -7 16 -3 20 4 5 -2 7 -13 6 -11 -1 -40 -1 -65 0 l-45 2 40 8
c169 33 212 36 236 14 16 -14 21 -14 51 -1 63 29 74 31 83 17z m395 -55 c0
-32 -4 -45 -14 -45 -9 0 -12 7 -9 20 3 11 0 20 -6 20 -6 0 -11 10 -11 23 0 18
-2 19 -10 7 -5 -8 -10 -25 -10 -38 0 -21 -2 -22 -15 -8 -10 10 -13 24 -9 41 5
21 12 25 45 25 l39 0 0 -45z m745 -35 c9 -16 13 -30 11 -30 -3 0 -12 14 -21
30 -9 17 -13 30 -11 30 3 0 12 -13 21 -30z m-1531 -35 c-4 -8 -8 -15 -10 -15
-2 0 -4 7 -4 15 0 8 4 15 10 15 5 0 7 -7 4 -15z m86 -35 c0 -5 7 -10 15 -10
20 0 19 -19 -1 -27 -16 -6 -58 30 -47 41 10 10 33 7 33 -4z m-850 -45 c0 -8
-4 -15 -9 -15 -13 0 -22 16 -14 24 11 11 23 6 23 -9z m580 -16 c0 -22 -49 -98
-64 -99 -10 0 0 75 15 101 14 26 49 25 49 -2z m97 -4 l36 -15 -7 -52 c-4 -29
-9 -54 -11 -57 -2 -2 -19 3 -37 12 -18 8 -45 18 -59 22 l-26 6 26 50 c14 27
30 49 34 49 4 0 24 -7 44 -15z m-333 -38 c17 -13 16 -16 -14 -65 -24 -39 -38
-52 -55 -52 -28 0 -38 12 -29 35 6 14 8 13 21 -5 14 -20 16 -20 33 -5 10 9 23
29 28 44 8 23 6 30 -9 39 -11 7 -19 9 -19 5 0 -5 -10 -19 -21 -33 l-21 -25 16
28 c15 25 14 32 -7 28 -5 -1 -6 3 -2 9 9 14 58 12 79 -3z m-205 -58 c-8 -5
-20 -2 -31 8 -28 26 -21 35 13 17 24 -12 29 -18 18 -25z m1219 -80 l72 -50 0
-65 c0 -68 -6 -76 -35 -44 -10 11 -25 20 -34 20 -9 0 -31 13 -49 29 -24 22
-32 38 -32 63 0 18 -4 48 -9 66 -13 44 0 42 87 -19z m-503 2 c-6 -5 -25 10
-25 20 0 5 6 4 14 -3 8 -7 12 -15 11 -17z m-609 -37 c-3 -8 -2 -12 4 -9 23 14
8 -24 -16 -40 -21 -13 -28 -14 -41 -4 -13 11 -17 10 -28 -4 -7 -10 -16 -14
-19 -9 -3 6 15 26 42 46 51 39 67 44 58 20z m909 -20 c16 -24 16 -26 -1 -22
-9 1 -20 13 -25 26 -11 30 5 28 26 -4z m559 -49 c-4 -8 -11 -15 -16 -15 -6 0
-5 6 2 15 7 8 14 15 16 15 2 0 1 -7 -2 -15z m-194 -44 c0 -5 -7 -14 -15 -21
-13 -10 -15 -9 -15 9 0 12 6 21 15 21 8 0 15 -4 15 -9z m-575 -97 l40 -7 -37
-10 c-31 -7 -38 -13 -38 -34 0 -37 -30 -26 -57 22 -12 22 -23 43 -23 46 0 4
17 3 38 -2 20 -4 55 -11 77 -15z m1338 9 c34 -5 38 -8 33 -29 -7 -27 -1 -29
34 -9 41 24 140 13 140 -14 0 -23 -42 -121 -52 -121 -6 0 -25 15 -42 33 -22
22 -38 31 -55 29 -26 -4 -129 13 -171 28 -14 5 -51 12 -84 15 -32 4 -54 11
-50 15 5 5 41 23 79 39 48 21 79 29 100 26 17 -3 47 -8 68 -12z m-1249 -29 c9
-3 13 -11 10 -16 -4 -6 1 -8 14 -4 12 4 32 1 44 -6 13 -7 27 -11 33 -9 5 1 33
-5 62 -15 47 -16 53 -21 53 -46 0 -15 -4 -28 -9 -28 -4 0 -29 19 -55 41 -52
46 -70 46 -37 1 24 -35 26 -42 8 -42 -12 0 -47 34 -47 46 0 3 -9 17 -19 30
-19 24 -20 24 -26 4 -3 -11 -3 -25 1 -31 4 -7 2 -10 -6 -7 -15 5 -63 88 -51
88 5 0 16 -3 25 -6z m1514 -161 c18 -25 16 -92 -4 -100 -9 -3 -20 0 -25 8 -7
11 -9 11 -10 -3 -2 -27 -4 -32 -13 -46 -6 -10 -14 2 -27 40 -15 44 -16 60 -7
91 11 36 14 38 42 33 17 -4 37 -14 44 -23z m-383 -54 c44 -12 89 -25 100 -30
11 -4 52 -17 91 -28 66 -20 89 -34 109 -71 7 -12 6 -13 -7 -2 -21 16 -108 46
-257 88 -89 24 -145 34 -197 34 -83 0 -138 15 -114 31 23 16 187 3 275 -22z
m-136 -209 c0 -139 -2 -160 -12 -135 -8 20 -11 79 -9 180 4 205 22 169 21 -45z
m-260 121 c1 -35 -5 -22 -12 24 -5 28 -4 34 3 20 5 -11 9 -31 9 -44z m-349
-56 c0 -8 -4 -15 -10 -15 -5 0 -10 9 -10 20 0 11 -4 20 -10 20 -5 0 -10 8 -10
17 0 14 3 14 20 -5 11 -12 20 -28 20 -37z m438 28 c-18 -42 -69 -93 -92 -92
-12 0 -30 5 -41 10 -17 8 -16 8 7 4 22 -4 35 3 73 40 25 25 45 50 45 55 0 6 4
10 10 10 6 0 5 -11 -2 -27z m544 -100 c-8 -14 -13 -10 -31 25 -26 52 -26 54 4
46 17 -4 26 -2 27 7 1 8 3 -3 5 -23 2 -21 0 -45 -5 -55z m-2158 71 c12 -5 16
-20 16 -64 0 -51 -2 -58 -18 -53 -10 2 -30 27 -46 55 -23 41 -26 52 -15 59 16
10 41 11 63 3z m1673 -40 c-10 -10 -29 17 -22 32 6 17 8 17 16 -5 5 -13 8 -25
6 -27z m700 4 c-10 -16 -12 -16 -15 -3 -2 9 -1 24 3 33 5 13 8 14 15 3 5 -9 3
-22 -3 -33z m-959 15 c12 -3 25 -10 28 -15 4 -6 -2 -7 -17 -2 -13 4 -34 7 -46
6 -15 -1 -23 4 -23 14 0 12 5 14 18 9 9 -4 27 -10 40 -12z m447 -3 c3 -6 -1
-13 -10 -16 -19 -8 -30 0 -20 15 8 14 22 14 30 1z m-1590 -122 c-3 -71 -15
-108 -34 -108 -3 0 -18 22 -34 49 -25 46 -27 53 -17 97 14 63 15 64 54 52 l35
-11 -4 -79z m1463 60 c7 -7 12 -21 12 -31 0 -16 -3 -17 -14 -8 -15 13 -28 51
-17 51 4 0 12 -5 19 -12z m-63 -16 c-3 -3 -11 0 -18 7 -9 10 -8 11 6 5 10 -3
15 -9 12 -12z m230 -26 c30 -44 60 -66 93 -66 11 -1 6 -6 -13 -17 -16 -8 -59
-43 -95 -77 l-65 -61 -9 58 c-7 52 -6 64 13 97 11 21 21 51 21 67 0 28 7 43
19 43 3 0 20 -20 36 -44z m688 -14 c16 -29 27 -55 25 -58 -13 -12 -40 13 -67
63 -28 51 -29 54 -9 51 13 -2 32 -23 51 -56z m-152 -27 c8 -14 4 -13 -11 5
l-22 25 7 -29 c12 -56 35 -102 44 -87 6 9 9 6 9 -11 0 -30 68 -154 75 -136 3
7 6 -1 6 -17 1 -17 10 -47 21 -67 l19 -37 -28 -20 c-16 -12 -32 -21 -35 -21
-13 0 -91 193 -116 290 -7 25 -16 53 -21 62 -12 24 -11 61 1 53 6 -4 10 6 10
22 1 27 1 27 16 8 9 -11 20 -29 25 -40z m31 -43 c-3 -10 -1 -13 6 -8 7 4 19
-9 32 -34 11 -22 25 -40 30 -40 12 0 87 -144 82 -159 -5 -15 -19 -14 -19 2 0
6 -26 55 -58 107 -31 52 -57 96 -56 98 5 10 -1 22 -8 17 -6 -3 -14 3 -20 13
-7 14 -6 19 4 19 7 0 11 -7 7 -15z m-3005 -29 c-3 -5 -36 -24 -74 -43 -37 -19
-71 -38 -74 -43 -4 -5 -12 -6 -19 -2 -8 5 -11 4 -6 -3 6 -10 -179 -212 -195
-212 -14 0 -11 30 7 77 9 24 22 42 28 41 6 -2 47 26 91 61 44 35 116 81 159
102 75 37 95 42 83 22z m2067 8 c7 -11 -72 -26 -82 -16 -10 10 20 25 50 25 15
0 29 -4 32 -9z m446 -46 c-7 -8 -17 -12 -23 -8 -6 4 -3 11 8 19 23 17 32 10
15 -11z m385 15 c3 -5 1 -10 -4 -10 -6 0 -11 5 -11 10 0 6 2 10 4 10 3 0 8 -4
11 -10z m335 -72 c33 -58 38 -88 15 -88 -8 0 -30 31 -50 70 -33 65 -34 70 -15
70 13 0 29 -17 50 -52z m-940 26 c0 -8 -4 -12 -10 -9 -5 3 -10 10 -10 16 0 5
5 9 10 9 6 0 10 -7 10 -16z m27 -16 c-3 -7 -5 -2 -5 12 0 14 2 19 5 13 2 -7 2
-19 0 -25z m574 -61 c-10 -9 -11 -8 -5 6 3 10 9 15 12 12 3 -3 0 -11 -7 -18z
m59 -15 c0 -15 -2 -15 -11 -2 -8 12 -9 8 -6 -15 5 -27 4 -28 -8 -11 -11 14
-11 22 -2 36 13 21 27 17 27 -8z m361 -65 c-11 -11 -25 28 -15 45 5 7 10 3 16
-12 5 -14 5 -27 -1 -33z m-331 3 c0 -5 -4 -10 -10 -10 -5 0 -10 5 -10 10 0 6
5 10 10 10 6 0 10 -4 10 -10z m-41 -42 c1 6 5 12 10 12 5 0 7 -9 4 -20 -3 -11
-9 -20 -14 -20 -13 0 -27 33 -21 50 4 11 8 8 13 -10 4 -14 7 -19 8 -12z m261
17 c0 -2 -7 -8 -15 -15 -12 -10 -15 -10 -15 2 0 8 7 15 15 15 8 0 15 -1 15 -2z
m-411 -45 c12 -22 21 -46 21 -53 -1 -12 -49 71 -50 86 -1 16 9 5 29 -33z
m-3094 -18 c-3 -3 -11 0 -18 7 -9 10 -8 11 6 5 10 -3 15 -9 12 -12z m3282 -21
c-3 -28 -1 -41 8 -45 11 -4 18 -46 9 -46 -1 0 -12 16 -24 37 -18 31 -19 40 -9
65 16 39 23 35 16 -11z m-3327 3 c0 -8 -5 -12 -10 -9 -6 4 -8 11 -5 16 9 14
15 11 15 -7z m2137 -6 c-3 -8 -6 -5 -6 6 -1 11 2 17 5 13 3 -3 4 -12 1 -19z
m596 -3 c-3 -9 -8 -14 -10 -11 -3 3 -2 9 2 15 9 16 15 13 8 -4z m-634 -85 c1
-33 4 -41 11 -30 5 8 7 32 3 53 -6 38 -6 38 23 31 41 -10 57 -29 48 -56 -5
-13 -7 -27 -6 -31 1 -5 -7 -6 -18 -2 -15 5 -26 1 -35 -12 -22 -29 -18 -43 20
-59 19 -8 35 -18 35 -24 0 -5 -14 -1 -30 8 -26 15 -32 15 -39 3 -14 -22 6 -51
34 -51 13 0 27 5 30 10 12 19 25 10 25 -19 0 -17 -6 -31 -16 -35 -12 -5 -15
-14 -11 -35 5 -26 2 -31 -23 -40 -32 -11 -33 -9 -30 27 2 25 -17 30 -26 7 -5
-12 -23 -15 -88 -14 -44 1 -92 -2 -105 -6 -17 -6 -23 -5 -19 5 2 7 41 27 87
44 87 32 119 59 91 76 -8 5 -10 10 -4 10 18 0 26 31 13 46 -7 8 -9 29 -6 50 4
20 1 46 -5 57 -8 16 -7 22 6 29 9 5 16 19 17 31 1 21 2 20 9 -3 4 -14 9 -45 9
-70z m-1622 74 c14 -4 20 -11 16 -18 -4 -6 1 -5 10 2 12 10 31 12 66 7 50 -7
50 -7 44 -38 -10 -53 -19 -62 -73 -76 -44 -11 -54 -11 -61 0 -7 11 -9 10 -9
-5 0 -16 -2 -16 -16 -6 -12 11 -15 11 -12 0 3 -12 -9 -17 -74 -34 -22 -5 -28
-3 -28 10 0 9 -10 29 -21 46 l-21 29 23 25 c12 13 26 24 31 24 5 0 25 -17 44
-37 l35 -38 -25 39 c-29 43 -32 62 -13 69 17 8 58 8 84 1z m362 -30 c-19 -20
-55 -35 -99 -39 -9 0 -22 -5 -29 -10 -11 -6 -13 -2 -7 25 8 44 19 50 94 49
l63 -1 -22 -24z m1861 6 c-6 -11 -13 -20 -16 -20 -2 0 0 9 6 20 6 11 13 20 16
20 2 0 0 -9 -6 -20z m906 -47 c-12 -12 -23 17 -18 45 l6 27 9 -33 c6 -18 7
-36 3 -39z m-2722 48 c3 -5 -3 -11 -15 -14 -16 -4 -18 -3 -8 9 13 16 16 17 23
5z m2844 -176 c28 -83 56 -181 62 -220 10 -64 9 -86 -7 -140 -5 -18 -4 -18 12
-5 15 13 19 12 31 -5 29 -40 5 -77 -26 -40 -7 8 -16 12 -21 9 -8 -5 -13 9 -10
29 0 4 -3 7 -9 7 -5 0 -18 10 -29 21 -17 19 -18 23 -6 36 16 16 39 8 29 -9 -4
-6 -2 -8 3 -5 44 27 7 206 -102 492 -7 20 -7 20 8 0 8 -11 38 -88 65 -170z
m-1920 138 c36 -24 51 -44 50 -68 0 -11 1 -26 3 -33 6 -21 -243 -174 -286
-176 -5 -1 -12 -4 -15 -8 -7 -9 -91 -39 -115 -41 -11 -1 -24 -8 -28 -14 -4 -7
-16 -13 -26 -13 -10 0 -21 -3 -25 -7 -11 -11 -119 -42 -128 -37 -4 3 -8 0 -8
-6 0 -6 -4 -9 -9 -6 -5 3 -11 -1 -15 -9 -3 -8 -14 -15 -25 -15 -10 0 -32 -7
-47 -15 -42 -22 -55 -19 -48 9 8 33 -11 41 -36 14 l-21 -23 -20 24 c-11 13
-18 30 -15 37 3 8 -9 17 -31 25 -30 9 -33 13 -19 21 9 5 21 6 26 3 6 -3 10 -1
10 6 0 7 3 10 6 6 4 -3 20 1 36 9 16 8 39 14 51 12 13 -2 21 2 19 10 -2 13 14
17 22 4 11 -18 -44 -58 -68 -49 -7 3 -13 -1 -13 -9 0 -19 24 -26 31 -8 8 20
34 18 39 -3 4 -13 5 -12 6 5 0 12 8 25 17 29 11 4 14 14 10 32 -3 14 -3 20 0
14 4 -9 11 -10 25 -3 11 6 19 7 19 1 0 -5 -7 -11 -15 -15 -16 -6 -21 -36 -5
-36 5 0 14 10 21 21 9 17 13 19 20 8 9 -15 12 -6 10 36 0 14 1 16 6 5 3 -8 12
-20 19 -27 10 -11 14 -9 19 7 3 11 11 20 17 20 6 0 5 -6 -3 -16 -10 -12 -10
-17 0 -23 25 -16 -8 -60 -56 -75 -13 -4 -23 -11 -23 -16 0 -10 36 1 78 22 18
9 22 20 22 57 0 25 4 51 8 56 4 6 74 43 155 83 81 40 150 79 154 88 3 8 12 13
20 10 8 -3 12 -2 9 2 -2 4 2 16 10 27 8 10 14 15 14 10 0 -5 6 -1 13 8 10 14
75 44 100 46 4 1 20 -7 35 -16z m632 5 c0 -26 -20 -41 -104 -78 -47 -21 -86
-37 -86 -35 0 2 23 18 51 35 37 25 49 38 46 52 -3 10 -1 16 3 13 5 -3 24 1 42
9 42 18 48 19 48 4z m1093 -18 c9 -16 19 -44 22 -62 4 -18 11 -37 15 -43 4 -5
20 -50 35 -100 15 -49 33 -107 41 -127 8 -21 10 -38 6 -38 -8 0 -82 115 -82
127 0 5 -9 19 -20 33 -11 14 -20 35 -20 48 0 12 -4 22 -9 22 -5 0 -11 8 -15
18 -3 9 -17 37 -31 61 -31 54 -31 65 -2 79 35 17 44 14 60 -18z m-123 -25 c0
-9 -6 -12 -15 -9 -8 4 -15 10 -15 15 0 5 7 9 15 9 8 0 15 -7 15 -15z m-83 -17
c-3 -8 -6 -5 -6 6 -1 11 2 17 5 13 3 -3 4 -12 1 -19z m-3357 -2 c0 -2 -9 -6
-20 -9 -11 -3 -20 -1 -20 4 0 5 9 9 20 9 11 0 20 -2 20 -4z m333 -25 c15 -16
23 -32 18 -36 -25 -15 9 -39 71 -49 20 -3 15 -15 -11 -24 -16 -6 -49 -31 -74
-56 -42 -44 -47 -46 -101 -46 -31 0 -56 3 -56 7 0 4 5 22 12 40 9 25 18 33 38
33 24 1 24 1 6 15 -11 8 -17 18 -13 21 8 8 46 -37 64 -75 l13 -26 -6 25 c-4
14 -10 29 -15 35 -5 5 -9 23 -9 40 0 16 -4 36 -9 44 -6 9 -2 25 12 47 12 19
24 34 27 34 3 0 18 -13 33 -29z m608 -34 c-10 -9 -11 -8 -5 6 3 10 9 15 12 12
3 -3 0 -11 -7 -18z m69 -18 c-7 -11 -14 -18 -17 -15 -3 3 0 12 7 21 18 21 23
19 10 -6z m2420 17 c0 -3 -4 -8 -10 -11 -5 -3 -10 -1 -10 4 0 6 5 11 10 11 6
0 10 -2 10 -4z m-2553 -38 c-3 -7 -5 -2 -5 12 0 14 2 19 5 13 2 -7 2 -19 0
-25z m40 10 c0 -7 3 -20 5 -28 3 -8 3 -11 0 -7 -2 4 -10 0 -18 -10 -12 -16
-13 -15 -14 14 0 17 6 34 13 36 6 3 12 6 13 6 0 1 1 -5 1 -11z m1803 2 c0 -5
-5 -10 -11 -10 -5 0 -7 5 -4 10 3 6 8 10 11 10 2 0 4 -4 4 -10z m-830 -20 c0
-5 -5 -10 -11 -10 -5 0 -7 5 -4 10 3 6 8 10 11 10 2 0 4 -4 4 -10z m1634 -27
c7 -16 -16 -38 -46 -46 -21 -6 -22 -1 -7 40 7 23 15 30 29 26 10 -3 21 -12 24
-20z m-2634 -44 c0 -5 -4 -9 -10 -9 -5 0 -10 7 -10 16 0 8 5 12 10 9 6 -3 10
-10 10 -16z m-310 4 c0 -3 -8 -16 -17 -27 -13 -15 -10 -14 10 3 15 14 29 22
33 19 6 -6 -35 -48 -47 -48 -12 0 -39 42 -33 52 6 10 54 11 54 1z m130 -8 c0
-8 -4 -15 -10 -15 -5 0 -10 7 -10 15 0 8 5 15 10 15 6 0 10 -7 10 -15z m-256
-29 c-5 -22 -12 -26 -41 -26 -39 0 -37 12 10 40 37 23 40 21 31 -14z m1403 -8
c-3 -8 -6 -5 -6 6 -1 11 2 17 5 13 3 -3 4 -12 1 -19z m-1187 8 c0 -3 -4 -8
-10 -11 -5 -3 -10 -1 -10 4 0 6 5 11 10 11 6 0 10 -2 10 -4z m-5 -36 c3 -5 -1
-10 -10 -10 -9 0 -13 5 -10 10 3 6 8 10 10 10 2 0 7 -4 10 -10z m-375 -10 c0
-5 -4 -10 -10 -10 -5 0 -10 -9 -10 -19 0 -11 -4 -22 -9 -25 -13 -8 -34 -122
-28 -154 3 -15 2 -34 -3 -42 -8 -12 -14 -12 -44 3 -35 16 -36 18 -36 73 0 53
1 55 23 49 l22 -7 -22 16 c-18 13 -21 23 -16 54 10 65 18 72 78 72 30 0 55 -4
55 -10z m150 1 c0 -13 -52 -66 -72 -74 -27 -10 -39 22 -22 55 12 24 21 28 54
28 22 0 40 -4 40 -9z m3412 -61 c3 -16 1 -30 -4 -30 -4 0 -8 14 -8 30 0 17 2
30 4 30 2 0 6 -13 8 -30z m-292 6 c0 -3 -4 -8 -10 -11 -5 -3 -10 -1 -10 4 0 6
5 11 10 11 6 0 10 -2 10 -4z m22 -32 c-9 -16 -10 -14 -9 8 1 15 6 23 11 18 4
-4 4 -16 -2 -26z m42 -29 c3 -8 1 -15 -4 -15 -6 0 -10 7 -10 15 0 8 2 15 4 15
2 0 6 -7 10 -15z m-3744 -30 c-24 -26 -41 -25 -39 3 0 10 3 12 6 5 4 -10 10
-10 26 2 31 22 34 18 7 -10z m462 -20 c10 -22 8 -29 -12 -50 -13 -14 -18 -25
-12 -25 6 0 15 8 20 17 17 29 33 -49 19 -87 -6 -16 -15 -30 -19 -30 -13 0 -22
24 -10 28 19 6 14 19 -9 25 -11 3 -19 11 -18 19 2 7 -1 24 -5 36 -11 33 2 92
20 92 8 0 20 -11 26 -25z m788 -15 c22 14 30 12 30 -8 0 -19 -85 -70 -97 -58
-3 3 7 10 22 16 23 9 26 14 21 38 -4 15 -3 22 1 15 6 -8 14 -9 23 -3z m-335
-30 c-3 -5 -10 -10 -16 -10 -5 0 -9 5 -9 10 0 6 7 10 16 10 8 0 12 -4 9 -10z
m-594 -54 c21 -9 39 -26 47 -45 32 -80 37 -91 44 -91 5 0 8 -5 8 -11 0 -13 55
-68 85 -85 10 -6 20 -15 22 -21 5 -14 -114 -96 -130 -90 -7 3 -19 17 -27 32
-13 25 -13 28 5 42 19 14 19 14 -6 8 -24 -6 -28 -2 -47 46 -26 62 -27 67 -4
93 16 20 16 20 -1 6 -16 -12 -20 -12 -28 1 -13 21 -11 67 4 72 7 3 5 6 -5 6
-12 1 -18 9 -18 26 0 29 5 30 51 11z m509 -6 c0 -5 -4 -10 -10 -10 -5 0 -10 5
-10 10 0 6 5 10 10 10 6 0 10 -4 10 -10z m440 -25 c0 -29 -7 -31 -39 -9 -18
13 -20 18 -10 25 27 17 49 10 49 -16z m-43 -16 c31 -19 34 -25 29 -52 -9 -42
-11 -43 -41 -11 l-27 29 28 -38 27 -38 -25 -57 c-23 -54 -26 -57 -59 -55 -28
2 -30 1 -13 -7 32 -13 35 -23 15 -49 l-18 -24 -22 22 c-13 13 -25 21 -27 18
-2 -2 5 -12 16 -22 26 -24 25 -37 -4 -64 l-23 -22 -23 56 c-29 72 -34 67 -9
-9 19 -55 19 -59 3 -77 -9 -11 -21 -19 -26 -19 -9 0 -10 200 -1 233 2 9 13 17
24 17 12 0 27 16 43 48 14 26 40 58 59 71 25 19 32 31 29 48 -5 28 1 29 45 2z
m2708 11 c3 -5 -1 -10 -10 -10 -9 0 -13 5 -10 10 3 6 8 10 10 10 2 0 7 -4 10
-10z m-2785 -20 c0 -5 -5 -10 -11 -10 -5 0 -7 5 -4 10 3 6 8 10 11 10 2 0 4
-4 4 -10z m-536 -82 c6 -4 2 -16 -9 -28 -10 -11 -15 -20 -11 -20 12 0 36 28
36 41 0 7 6 4 14 -7 13 -17 13 -21 -7 -36 -13 -10 -31 -15 -42 -12 -35 10 -96
55 -92 67 8 26 78 24 111 -5z m176 2 c0 -5 -4 -10 -10 -10 -5 0 -10 5 -10 10
0 6 5 10 10 10 6 0 10 -4 10 -10z m-125 -60 c-3 -5 -11 -10 -16 -10 -6 0 -7 5
-4 10 3 6 11 10 16 10 6 0 7 -4 4 -10z m161 -46 c-6 -14 -4 -15 9 -4 14 11 21
11 46 -4 28 -17 30 -16 70 6 52 29 59 20 59 -93 0 -117 -6 -142 -40 -162 -55
-33 -81 -18 -136 78 -15 28 -34 56 -41 63 -15 16 -16 22 -3 42 7 12 10 8 10
-14 0 -57 10 -18 11 43 1 33 6 61 11 61 6 0 7 -7 4 -16z m-34 -19 c3 -13 2
-22 -3 -20 -4 3 -9 -7 -11 -22 l-3 -28 -24 33 c-22 32 -23 34 -5 47 28 21 41
18 46 -10z m-52 -35 c24 -34 25 -43 4 -78 -15 -25 -15 -25 0 -8 19 23 20 15 5
-56 -20 -93 -42 -121 -78 -99 -12 7 -9 18 13 58 27 47 24 46 -21 -11 -28 -35
-65 -37 -99 -5 -24 22 -25 28 -23 126 l1 103 89 -1 c86 -2 90 -3 109 -29z
m-211 -62 c1 -94 -8 -120 -34 -98 -11 9 -14 22 -9 44 l6 31 -22 -20 -22 -20
-19 24 c-10 13 -19 27 -19 32 0 6 102 83 116 88 1 1 2 -36 3 -81z m271 -27
c11 -22 14 -160 3 -162 -33 -6 -54 -5 -59 2 -7 12 27 179 37 179 5 0 13 -9 19
-19z m59 -95 c23 -47 21 -66 -5 -66 -18 0 -34 40 -34 86 0 43 9 39 39 -20z"/>
<path d="M2770 3380 c0 -13 5 -20 13 -17 6 2 12 10 12 17 0 7 -6 15 -12 18 -8
2 -13 -5 -13 -18z"/>
<path d="M2750 3342 c0 -5 9 -17 20 -27 15 -14 20 -15 20 -4 0 8 -9 20 -20 27
-11 7 -20 8 -20 4z"/>
<path d="M2640 3331 c0 -5 5 -13 10 -16 6 -3 10 -2 10 4 0 5 -4 13 -10 16 -5
3 -10 2 -10 -4z"/>
<path d="M2797 3268 c6 -23 68 -88 84 -88 18 0 8 16 -40 63 -40 39 -48 44 -44
25z"/>
<path d="M3210 1550 c-8 -5 -13 -10 -10 -11 46 -7 61 -6 57 4 -5 16 -28 19
-47 7z"/>
<path d="M2654 1504 c-18 -14 -18 -15 4 -4 12 6 22 13 22 15 0 8 -5 6 -26 -11z"/>
<path d="M2525 1455 c-25 -12 -26 -14 -5 -9 28 7 60 23 45 23 -5 0 -23 -6 -40
-14z"/>
<path d="M2468 1433 c7 -3 16 -2 19 1 4 3 -2 6 -13 5 -11 0 -14 -3 -6 -6z"/>
<path d="M2420 1420 c-8 -5 -10 -10 -5 -10 6 0 17 5 25 10 8 5 11 10 5 10 -5
0 -17 -5 -25 -10z"/>
<path d="M1304 1108 l-19 -23 23 19 c12 11 22 21 22 23 0 8 -8 2 -26 -19z"/>
<path d="M1990 947 c0 -2 15 -16 32 -33 27 -23 29 -24 10 -3 -12 14 -19 29
-15 32 3 4 -1 7 -10 7 -9 0 -17 -1 -17 -3z"/>
<path d="M1460 830 c-6 -11 -8 -20 -6 -20 3 0 10 9 16 20 6 11 8 20 6 20 -3 0
-10 -9 -16 -20z"/>
<path d="M4363 4309 c1 -18 -6 -33 -22 -46 -14 -11 -21 -25 -17 -31 8 -13 22
-7 60 23 18 13 18 16 4 32 -8 10 -18 25 -21 33 -4 8 -6 3 -4 -11z"/>
<path d="M4348 4203 c-2 -5 8 -32 22 -60 20 -41 29 -50 38 -41 17 17 15 29
-13 71 -25 36 -40 45 -47 30z"/>
<path d="M4346 4074 c-11 -7 -17 -16 -15 -19 3 -3 14 2 25 9 10 8 17 17 14 19
-3 3 -14 -1 -24 -9z"/>
<path d="M4470 4053 c0 -7 -11 -9 -30 -7 -23 4 -29 2 -25 -9 3 -7 1 -25 -4
-39 l-9 -25 41 9 c23 6 56 10 72 11 17 1 35 5 42 10 6 4 13 2 15 -4 4 -11 66
-14 171 -10 l27 1 -20 20 c-11 11 -20 25 -20 30 0 6 -27 10 -61 10 -50 0 -60
-3 -55 -15 4 -11 -2 -15 -22 -14 -15 0 -21 3 -14 6 6 2 12 9 12 14 0 15 -22
10 -36 -8 -12 -16 -13 -16 -8 -1 4 13 -1 16 -28 14 -18 -2 -36 2 -40 8 -6 8
-8 8 -8 -1z m20 -44 c0 -6 -4 -7 -10 -4 -5 3 -10 11 -10 16 0 6 5 7 10 4 6 -3
10 -11 10 -16z"/>
<path d="M4160 4030 c-9 -6 -10 -10 -3 -10 6 0 15 5 18 10 8 12 4 12 -15 0z"/>
<path d="M5035 4006 c-44 -13 -32 -24 21 -18 20 3 34 10 34 18 0 16 -2 16 -55
0z"/>
<path d="M4843 3993 c9 -2 23 -2 30 0 6 3 -1 5 -18 5 -16 0 -22 -2 -12 -5z"/>
<path d="M4930 3989 c0 -5 5 -7 10 -4 6 3 10 8 10 11 0 2 -4 4 -10 4 -5 0 -10
-5 -10 -11z"/>
<path d="M4965 3990 c3 -5 8 -10 11 -10 2 0 4 5 4 10 0 6 -5 10 -11 10 -5 0
-7 -4 -4 -10z"/>
<path d="M1400 3956 c0 -7 -8 -16 -17 -19 -10 -3 -63 -22 -118 -42 -133 -48
-174 -56 -280 -57 -80 0 -98 4 -164 32 -55 24 -90 32 -132 32 -71 0 -141 -11
-137 -22 2 -5 64 -72 139 -149 145 -150 145 -150 224 -131 22 5 103 16 181 25
203 23 286 39 372 74 29 11 69 21 90 21 l37 1 -26 16 -26 16 36 33 c44 40 39
55 -40 101 -30 18 -61 38 -69 45 -14 13 -58 38 -66 38 -2 0 -4 -6 -4 -14z"/>
<path d="M3080 3955 c-16 -19 3 -96 29 -119 15 -14 20 -13 49 7 37 25 40 63 7
81 -11 6 -26 19 -33 29 -16 21 -35 22 -52 2z"/>
<path d="M4458 3962 c-43 -2 -78 -7 -78 -12 0 -6 136 -10 356 -10 262 0 355 3
352 11 -4 11 -430 19 -630 11z"/>
<path d="M2860 3956 c3 -2 43 -6 90 -7 47 -2 89 -8 93 -14 5 -6 7 -4 4 5 -3
12 -24 16 -97 18 -52 1 -92 1 -90 -2z"/>
<path d="M3565 3950 c-3 -5 3 -10 15 -10 12 0 18 5 15 10 -3 6 -10 10 -15 10
-5 0 -12 -4 -15 -10z"/>
<path d="M1933 3943 c9 -2 25 -2 35 0 9 3 1 5 -18 5 -19 0 -27 -2 -17 -5z"/>
<path d="M2465 3926 c-16 -13 -27 -27 -24 -30 3 -3 18 8 34 24 35 36 31 38
-10 6z"/>
<path d="M3053 3860 c0 -30 2 -43 4 -27 2 15 2 39 0 55 -2 15 -4 2 -4 -28z"/>
<path d="M4565 3720 c-15 -6 -8 -9 28 -9 30 -1 46 3 42 9 -7 12 -42 12 -70 0z"/>
<path d="M4750 3723 c-91 -15 -41 -33 108 -39 71 -3 112 -1 112 5 0 18 -32 28
-75 23 -25 -2 -45 0 -49 7 -7 11 -46 12 -96 4z"/>
<path d="M4995 3710 c-4 -6 5 -10 20 -10 15 0 24 4 20 10 -3 6 -12 10 -20 10
-8 0 -17 -4 -20 -10z"/>
<path d="M1418 3653 c6 -2 18 -2 25 0 6 3 1 5 -13 5 -14 0 -19 -2 -12 -5z"/>
<path d="M4160 3169 c0 -5 5 -7 10 -4 6 3 10 8 10 11 0 2 -4 4 -10 4 -5 0 -10
-5 -10 -11z"/>
<path d="M4245 3030 c3 -5 8 -10 11 -10 2 0 4 5 4 10 0 6 -5 10 -11 10 -5 0
-7 -4 -4 -10z"/>
<path d="M3445 2860 c-24 -26 -4 -26 50 -1 l40 19 -36 1 c-24 1 -42 -6 -54
-19z"/>
<path d="M3610 2868 l25 -10 -30 -14 c-16 -7 -35 -13 -42 -14 -22 0 -25 -22
-5 -43 11 -12 21 -27 23 -34 2 -6 27 17 56 52 48 59 50 63 30 69 -12 3 -35 6
-52 5 l-30 0 25 -11z"/>
<path d="M4805 2860 c-3 -5 1 -10 10 -10 9 0 13 5 10 10 -3 6 -8 10 -10 10 -2
0 -7 -4 -10 -10z"/>
<path d="M760 2655 c-7 -8 -16 -13 -20 -10 -4 3 -10 -2 -13 -9 -5 -12 3 -27
40 -75 2 -3 11 3 20 12 15 15 15 16 -5 10 -12 -3 -22 -1 -22 3 0 5 -3 19 -6
32 -5 16 -2 22 10 22 9 0 16 7 16 15 0 19 -4 19 -20 0z"/>
<path d="M685 2580 c-9 -17 -13 -36 -9 -42 6 -10 42 44 44 65 1 18 -21 4 -35
-23z"/>
<path d="M8 2593 c7 -3 16 -2 19 1 4 3 -2 6 -13 5 -11 0 -14 -3 -6 -6z"/>
<path d="M728 2563 c-10 -2 -18 -9 -18 -14 0 -14 16 -11 30 6 7 8 11 14 9 14
-2 -1 -12 -3 -21 -6z"/>
<path d="M178 2523 c6 -2 18 -2 25 0 6 3 1 5 -13 5 -14 0 -19 -2 -12 -5z"/>
<path d="M754 2488 c-14 -30 -34 -92 -34 -104 1 -5 12 18 26 51 23 57 30 102
8 53z"/>
<path d="M701 2477 c-8 -10 -7 -14 4 -14 8 0 15 6 15 14 0 7 -2 13 -4 13 -2 0
-9 -6 -15 -13z"/>
<path d="M674 2426 c-4 -12 -10 -36 -13 -55 -5 -27 -12 -36 -33 -42 -33 -9
-36 3 -9 32 24 26 32 56 16 56 -7 0 -24 -27 -38 -59 -14 -32 -21 -58 -16 -58
5 0 9 -7 9 -15 0 -17 30 -15 53 3 12 10 17 10 23 1 5 -9 11 -7 20 6 8 10 26
27 41 38 l28 19 -37 -5 c-47 -7 -52 1 -27 41 10 18 19 38 19 46 0 21 -28 15
-36 -8z"/>
<path d="M3358 1453 c7 -3 16 -2 19 1 4 3 -2 6 -13 5 -11 0 -14 -3 -6 -6z"/>
<path d="M4560 1049 c0 -5 9 -9 20 -9 11 0 20 2 20 4 0 2 -9 6 -20 9 -11 3
-20 1 -20 -4z"/>
<path d="M980 720 c0 -5 5 -10 11 -10 5 0 7 5 4 10 -3 6 -8 10 -11 10 -2 0 -4
-4 -4 -10z"/>
<path d="M4300 640 c0 -5 5 -10 11 -10 5 0 7 5 4 10 -3 6 -8 10 -11 10 -2 0
-4 -4 -4 -10z"/>
<path d="M4903 583 c9 -2 23 -2 30 0 6 3 -1 5 -18 5 -16 0 -22 -2 -12 -5z"/>
<path d="M3991 504 c0 -11 3 -14 6 -6 3 7 2 16 -1 19 -3 4 -6 -2 -5 -13z"/>
<path d="M1310 289 c0 -5 5 -7 10 -4 6 3 10 8 10 11 0 2 -4 4 -10 4 -5 0 -10
-5 -10 -11z"/>
<path d="M598 283 c7 -3 16 -2 19 1 4 3 -2 6 -13 5 -11 0 -14 -3 -6 -6z"/>
<path d="M4805 270 c-3 -6 1 -7 9 -4 18 7 21 14 7 14 -6 0 -13 -4 -16 -10z"/>
<path d="M4710 200 c19 -13 30 -13 30 0 0 6 -10 10 -22 10 -19 0 -20 -2 -8
-10z"/>
<path d="M4790 171 c0 -11 5 -23 10 -26 6 -3 10 3 10 14 0 11 -4 23 -10 26 -5
3 -10 -3 -10 -14z"/>
</g>
</svg>
